<svg version="1.1" viewBox="0 0 512 512" xmlns="http://www.w3.org/2000/svg"><path d="m333.2 16.5c-36.9 4.067-74.06 7.075-110.8 11.8-30.56 13.6-61.81 26.09-91.95 40.39-19.64 20.06-41.75 37.69-57.64 61.4 1.198-.1806 2.396-.3605 3.594-.541-10.12 26.36-20.24 52.71-30.36 79.07-14.89 4.186-29.77 8.373-44.66 12.56l-1.344 290.1c96.69-1.176 193.4-2.353 290.1-3.529 6.952-36.33 13.9-72.66 20.86-109l2.896.4512 2.357-3.219c12.41-16.93 24.82-33.87 37.23-50.8 36.85 38.18 73.71 76.37 110.6 114.6-14.02-69.35-28.03-138.7-42.05-208.1 4.923-6.717 9.845-13.43 14.77-20.15l2.316-3.162-1.686-3.537c-8.044-16.87-16.09-33.74-24.13-50.61 13.06-3.458 23.98-13.09 25.05-28.52-.1426-19.03-19.67-30.41-35.92-30-5.2-.5015-10.65.5801-15.7 2.805-5.303-11.12-10.61-22.24-15.91-33.37 27.06-4.078 97.11-18.16 124.2-22.23-2.686-9.412-3.371-19.82-6.057-29.24-28.15 5.178-101.3 21.36-129.5 26.54-8.729-14.58-17.46-29.17-26.19-43.75zm25.87 74.69c5.529 11.6 11.06 23.19 16.59 34.79-8.263 8.014-12.45 19.68-6.418 31.45 5.854 11.48 17.76 17.35 30.06 18.14 8.174 17.14 16.35 34.28 24.52 51.42-1.796 2.451-3.592 4.902-5.389 7.354-.0305-.1511-.0613-.3021-.0918-.4531-23.05-2.117-46.11-4.234-69.16-6.352-23.5 13.41-47 26.82-70.5 40.24 21.84 22.63 43.68 45.25 65.52 67.88-12.07 16.47-24.14 32.94-36.21 49.41-7.409-1.157-14.82-2.314-22.23-3.471-18.6-4.656-37.22-9.294-55.56-14.63-39.18-24.29-78.36-48.59-117.5-72.88-14.76-20.02-29.51-40.03-44.27-60.05-3.531-6.483-7.061-12.97-10.59-19.45 9.845-25.64 19.69-51.28 29.53-76.92 90.58-15.49 181.2-30.98 271.7-46.47zm-114.8 24.03c-19.28.8551-39.81 21.2-29.27 41.77 14.57 28.57 66.62 22.99 69.02-11.68-.1426-19.03-19.67-30.41-35.92-30-1.264-.1219-2.545-.1508-3.83-.0937z" color="#000000" style="-inkscape-stroke:none"/></svg>
